<mxfile host="app.diagrams.net" modified="2023-09-20T19:13:45.109Z" agent="Mozilla/5.0 (Macintosh; Intel Mac OS X 10_15_7) AppleWebKit/537.36 (KHTML, like Gecko) Chrome/116.0.0.0 Safari/537.36 OPR/102.0.0.0" version="21.7.5" etag="1oWiXVS62s9ukBCO7-tX" type="github">
  <diagram name="Pagina-1" id="Kya-6AtkVHHNK3MQif6J">
    <mxGraphModel>
      <root>
        <mxCell id="0" />
        <mxCell id="1" parent="0" />
      </root>
    </mxGraphModel>
  </diagram>
</mxfile>
